<?xml version="1.0" encoding="UTF-8" standalone="no"?>
<!DOCTYPE svg PUBLIC "-//W3C//DTD SVG 1.1//EN" "http://www.w3.org/Graphics/SVG/1.1/DTD/svg11.dtd">
<svg xmlns="http://www.w3.org/2000/svg" version="1.1" viewBox="0.00 0.00 720.00 720.00">
<g stroke-width="2.00" fill="none" stroke-linecap="butt">
<path stroke="#8282af" vector-effect="non-scaling-stroke" d="
  M 547.53 634.67
  C 700.20 528.06 736.07 319.88 630.52 167.94
  C 603.26 128.70 566.55 95.30 525.72 71.59
  Q 444.57 24.47 349.01 27.39
  Q 306.31 28.69 267.77 40.01
  C 169.23 68.95 89.04 142.49 51.74 238.26
  C -0.82 373.22 39.70 529.12 152.72 619.84
  Q 231.61 683.16 333.02 692.01
  Q 343.01 692.88 353.00 693.04
  C 422.45 694.14 490.55 674.45 547.53 634.67"
/>
<path stroke="#8282af" vector-effect="non-scaling-stroke" d="
  M 326.23 330.91
  L 322.22 334.82
  A 2.22 2.21 -46.2 0 0 322.28 338.06
  L 360.40 372.41
  A 3.26 3.26 0.0 0 0 364.71 372.45
  Q 371.84 366.29 378.57 359.84
  Q 380.72 357.77 382.68 358.78
  Q 404.92 370.30 421.57 390.41
  C 437.42 409.55 445.41 433.31 445.52 458.26
  C 445.57 468.90 446.30 480.38 444.67 490.18
  Q 441.06 511.97 429.07 528.81
  Q 412.95 551.43 385.45 563.88
  Q 373.92 569.09 369.49 570.45
  Q 344.60 578.11 318.61 579.98
  Q 310.21 580.58 301.81 581.20
  C 285.53 582.41 266.43 579.14 253.03 569.10
  Q 248.97 566.06 246.82 565.39
  Q 239.94 563.25 235.17 568.36
  C 231.32 572.48 230.33 577.24 233.82 581.98
  Q 236.79 586.02 240.75 586.19
  Q 265.31 587.21 303.00 586.69
  Q 316.03 586.51 322.97 585.92
  Q 358.89 582.90 391.52 567.73
  C 418.09 555.39 438.81 534.93 447.71 506.52
  Q 452.61 490.83 452.82 472.88
  C 453.02 455.62 451.15 437.57 445.81 421.23
  Q 434.80 387.56 405.94 365.79
  Q 397.09 359.12 388.16 353.22
  A 1.18 1.18 0.0 0 1 388.03 351.35
  L 403.58 337.75
  A 1.44 1.44 0.0 0 0 403.63 335.63
  Q 397.49 329.69 391.33 324.13
  Q 388.75 321.79 387.26 321.74
  Q 368.80 321.16 340.00 322.04
  Q 337.08 322.12 335.24 323.41
  C 333.54 324.60 332.29 325.47 330.52 324.71
  C 322.13 321.11 313.67 314.89 306.57 308.81
  Q 281.03 286.93 277.28 252.29
  Q 274.88 230.03 279.64 208.23
  Q 281.43 200.06 283.47 196.22
  Q 305.24 155.28 350.56 144.41
  Q 369.93 139.76 391.38 140.17
  C 401.80 140.37 410.42 142.81 418.45 149.08
  C 423.66 153.15 432.02 155.03 436.79 148.82
  C 442.37 141.56 436.78 133.44 428.25 133.33
  Q 410.49 133.10 392.75 133.06
  Q 380.35 133.04 372.79 133.93
  C 345.36 137.16 315.47 147.26 295.48 166.97
  Q 278.91 183.32 273.25 206.99
  C 267.91 229.32 268.88 257.72 277.92 279.65
  Q 287.74 303.46 308.40 319.23
  C 313.63 323.22 320.10 326.81 326.14 330.25
  A 0.41 0.41 0.0 0 1 326.23 330.91"
/>
</g>
<path fill="#ffffff" d="
  M 0.00 0.00
  L 720.00 0.00
  L 720.00 720.00
  L 0.00 720.00
  L 0.00 0.00
  Z
  M 547.53 634.67
  C 700.20 528.06 736.07 319.88 630.52 167.94
  C 603.26 128.70 566.55 95.30 525.72 71.59
  Q 444.57 24.47 349.01 27.39
  Q 306.31 28.69 267.77 40.01
  C 169.23 68.95 89.04 142.49 51.74 238.26
  C -0.82 373.22 39.70 529.12 152.72 619.84
  Q 231.61 683.16 333.02 692.01
  Q 343.01 692.88 353.00 693.04
  C 422.45 694.14 490.55 674.45 547.53 634.67
  Z"
/>
<path fill="#04055f" d="
  M 630.52 167.94
  C 736.07 319.88 700.20 528.06 547.53 634.67
  C 490.55 674.45 422.45 694.14 353.00 693.04
  Q 343.01 692.88 333.02 692.01
  Q 231.61 683.16 152.72 619.84
  C 39.70 529.12 -0.82 373.22 51.74 238.26
  C 89.04 142.49 169.23 68.95 267.77 40.01
  Q 306.31 28.69 349.01 27.39
  Q 444.57 24.47 525.72 71.59
  C 566.55 95.30 603.26 128.70 630.52 167.94
  Z
  M 326.23 330.91
  L 322.22 334.82
  A 2.22 2.21 -46.2 0 0 322.28 338.06
  L 360.40 372.41
  A 3.26 3.26 0.0 0 0 364.71 372.45
  Q 371.84 366.29 378.57 359.84
  Q 380.72 357.77 382.68 358.78
  Q 404.92 370.30 421.57 390.41
  C 437.42 409.55 445.41 433.31 445.52 458.26
  C 445.57 468.90 446.30 480.38 444.67 490.18
  Q 441.06 511.97 429.07 528.81
  Q 412.95 551.43 385.45 563.88
  Q 373.92 569.09 369.49 570.45
  Q 344.60 578.11 318.61 579.98
  Q 310.21 580.58 301.81 581.20
  C 285.53 582.41 266.43 579.14 253.03 569.10
  Q 248.97 566.06 246.82 565.39
  Q 239.94 563.25 235.17 568.36
  C 231.32 572.48 230.33 577.24 233.82 581.98
  Q 236.79 586.02 240.75 586.19
  Q 265.31 587.21 303.00 586.69
  Q 316.03 586.51 322.97 585.92
  Q 358.89 582.90 391.52 567.73
  C 418.09 555.39 438.81 534.93 447.71 506.52
  Q 452.61 490.83 452.82 472.88
  C 453.02 455.62 451.15 437.57 445.81 421.23
  Q 434.80 387.56 405.94 365.79
  Q 397.09 359.12 388.16 353.22
  A 1.18 1.18 0.0 0 1 388.03 351.35
  L 403.58 337.75
  A 1.44 1.44 0.0 0 0 403.63 335.63
  Q 397.49 329.69 391.33 324.13
  Q 388.75 321.79 387.26 321.74
  Q 368.80 321.16 340.00 322.04
  Q 337.08 322.12 335.24 323.41
  C 333.54 324.60 332.29 325.47 330.52 324.71
  C 322.13 321.11 313.67 314.89 306.57 308.81
  Q 281.03 286.93 277.28 252.29
  Q 274.88 230.03 279.64 208.23
  Q 281.43 200.06 283.47 196.22
  Q 305.24 155.28 350.56 144.41
  Q 369.93 139.76 391.38 140.17
  C 401.80 140.37 410.42 142.81 418.45 149.08
  C 423.66 153.15 432.02 155.03 436.79 148.82
  C 442.37 141.56 436.78 133.44 428.25 133.33
  Q 410.49 133.10 392.75 133.06
  Q 380.35 133.04 372.79 133.93
  C 345.36 137.16 315.47 147.26 295.48 166.97
  Q 278.91 183.32 273.25 206.99
  C 267.91 229.32 268.88 257.72 277.92 279.65
  Q 287.74 303.46 308.40 319.23
  C 313.63 323.22 320.10 326.81 326.14 330.25
  A 0.41 0.41 0.0 0 1 326.23 330.91
  Z"
/>
<path fill="#ffffff" d="
  M 326.23 330.91
  A 0.41 0.41 0.0 0 0 326.14 330.25
  C 320.10 326.81 313.63 323.22 308.40 319.23
  Q 287.74 303.46 277.92 279.65
  C 268.88 257.72 267.91 229.32 273.25 206.99
  Q 278.91 183.32 295.48 166.97
  C 315.47 147.26 345.36 137.16 372.79 133.93
  Q 380.35 133.04 392.75 133.06
  Q 410.49 133.10 428.25 133.33
  C 436.78 133.44 442.37 141.56 436.79 148.82
  C 432.02 155.03 423.66 153.15 418.45 149.08
  C 410.42 142.81 401.80 140.37 391.38 140.17
  Q 369.93 139.76 350.56 144.41
  Q 305.24 155.28 283.47 196.22
  Q 281.43 200.06 279.64 208.23
  Q 274.88 230.03 277.28 252.29
  Q 281.03 286.93 306.57 308.81
  C 313.67 314.89 322.13 321.11 330.52 324.71
  C 332.29 325.47 333.54 324.60 335.24 323.41
  Q 337.08 322.12 340.00 322.04
  Q 368.80 321.16 387.26 321.74
  Q 388.75 321.79 391.33 324.13
  Q 397.49 329.69 403.63 335.63
  A 1.44 1.44 0.0 0 1 403.58 337.75
  L 388.03 351.35
  A 1.18 1.18 0.0 0 0 388.16 353.22
  Q 397.09 359.12 405.94 365.79
  Q 434.80 387.56 445.81 421.23
  C 451.15 437.57 453.02 455.62 452.82 472.88
  Q 452.61 490.83 447.71 506.52
  C 438.81 534.93 418.09 555.39 391.52 567.73
  Q 358.89 582.90 322.97 585.92
  Q 316.03 586.51 303.00 586.69
  Q 265.31 587.21 240.75 586.19
  Q 236.79 586.02 233.82 581.98
  C 230.33 577.24 231.32 572.48 235.17 568.36
  Q 239.94 563.25 246.82 565.39
  Q 248.97 566.06 253.03 569.10
  C 266.43 579.14 285.53 582.41 301.81 581.20
  Q 310.21 580.58 318.61 579.98
  Q 344.60 578.11 369.49 570.45
  Q 373.92 569.09 385.45 563.88
  Q 412.95 551.43 429.07 528.81
  Q 441.06 511.97 444.67 490.18
  C 446.30 480.38 445.57 468.90 445.52 458.26
  C 445.41 433.31 437.42 409.55 421.57 390.41
  Q 404.92 370.30 382.68 358.78
  Q 380.72 357.77 378.57 359.84
  Q 371.84 366.29 364.71 372.45
  A 3.26 3.26 0.0 0 1 360.40 372.41
  L 322.28 338.06
  A 2.22 2.21 -46.2 0 1 322.22 334.82
  L 326.23 330.91
  Z"
/>
</svg>
